<?xml version="1.0" encoding="iso-8859-1"?>
<!-- Generator: Adobe Illustrator 19.0.0, SVG Export Plug-In . SVG Version: 6.00 Build 0)  -->
<svg version="1.1" id="Capa_1" xmlns="http://www.w3.org/2000/svg" xmlns:xlink="http://www.w3.org/1999/xlink" x="0px" y="0px"
	 viewBox="0 0 512 512" style="enable-background:new 0 0 512 512;" xml:space="preserve">
<path style="fill:#FFFFFF;" d="M504.163,141.061H75.755l0,0c0-17.313,14.034-31.347,31.347-31.347h365.714
	C490.129,109.714,504.163,123.748,504.163,141.061L504.163,141.061z"/>
<path style="fill:#EBE5DD;" d="M472.816,109.714h-21.42c17.313,0,31.347,14.035,31.347,31.347h21.42
	C504.163,123.749,490.129,109.714,472.816,109.714z"/>
<polygon style="fill:#00CCB3;" points="91.429,141.061 60.082,247.641 7.837,292.571 7.837,342.204 504.163,342.204 
	504.163,141.061 "/>
<rect x="7.837" y="342.204" style="fill:#FFFFFF;" width="496.327" height="28.735"/>
<rect x="482.743" y="342.204" style="fill:#EBE5DD;" width="21.42" height="28.735"/>
<rect x="483.265" y="141.061" style="fill:#008877;" width="20.898" height="208.98"/>
<path style="fill:#5AAAE7;" d="M231.967,214.204v-31.347c0-5.771-4.678-10.449-10.449-10.449h-31.347
	c-5.771,0-10.449,4.678-10.449,10.449v31.347c0,5.771,4.678,10.449,10.449,10.449h31.347
	C227.289,224.653,231.967,219.975,231.967,214.204z"/>
<circle style="fill:#57565C;" cx="104.49" cy="360.49" r="41.796"/>
<circle style="fill:#FFFFFF;" cx="104.49" cy="360.49" r="15.673"/>
<circle style="fill:#57565C;" cx="410.122" cy="360.49" r="41.796"/>
<circle style="fill:#FFFFFF;" cx="410.122" cy="360.49" r="15.673"/>
<g>
	<polygon style="fill:#5AAAE7;" points="134.792,165.094 134.792,240.327 88.816,240.327 110.947,165.094 	"/>
	<rect x="305.11" y="193.306" style="fill:#5AAAE7;" width="147.069" height="104.49"/>
</g>
<rect x="430.237" y="193.306" style="fill:#1A6FB0;" width="21.943" height="104.49"/>
<polygon style="fill:#FF6243;" points="477.91,193.306 279.38,193.306 310.727,141.061 446.563,141.061 "/>
<g>
	<polygon style="fill:#FFFFFF;" points="337.899,141.061 365.066,141.061 358.797,193.306 319.091,193.306 	"/>
	<polygon style="fill:#FFFFFF;" points="438.199,193.306 398.493,193.306 392.223,141.061 419.391,141.061 	"/>
</g>
<path style="fill:#FF6243;" d="M458.057,224.653L458.057,224.653c-10.964,0-19.853-8.889-19.853-19.853v-11.494h39.706V204.8
	C477.91,215.764,469.021,224.653,458.057,224.653z"/>
<path style="fill:#FFFFFF;" d="M418.351,224.653L418.351,224.653c-10.964,0-19.853-8.889-19.853-19.853v-11.494h39.706V204.8
	C438.204,215.764,429.315,224.653,418.351,224.653z"/>
<path style="fill:#FF6243;" d="M378.645,224.653L378.645,224.653c-10.964,0-19.853-8.889-19.853-19.853v-11.494h39.706V204.8
	C398.498,215.764,389.609,224.653,378.645,224.653z"/>
<path style="fill:#FFFFFF;" d="M338.939,224.653L338.939,224.653c-10.964,0-19.853-8.889-19.853-19.853v-11.494h39.706V204.8
	C358.792,215.764,349.903,224.653,338.939,224.653z"/>
<path style="fill:#FF6243;" d="M299.233,224.653L299.233,224.653c-10.964,0-19.853-8.889-19.853-19.853v-11.494h39.706V204.8
	C319.086,215.764,310.197,224.653,299.233,224.653z"/>
<path style="fill:#FFFFFF;" d="M370.808,297.796L370.808,297.796c-8.656,0-15.673-7.018-15.673-15.673v-15.673h31.347v15.673
	C386.482,290.778,379.464,297.796,370.808,297.796z"/>
<rect x="229.878" y="261.224" style="fill:#57565C;" width="94.041" height="109.714"/>
<g>
	<rect x="253.388" y="282.122" style="fill:#FFFFFF;" width="47.02" height="15.673"/>
	<rect x="253.388" y="308.245" style="fill:#FFFFFF;" width="47.02" height="15.673"/>
	<rect x="284.735" y="334.367" style="fill:#FFFFFF;" width="15.673" height="15.673"/>
</g>
<rect x="184.947" y="308.245" width="24.033" height="15.673"/>
<rect x="119.118" y="263.837" width="15.673" height="15.673"/>
<path d="M221.518,232.49c10.082,0,18.286-8.203,18.286-18.286v-31.347c0-10.082-8.203-18.286-18.286-18.286h-31.347
	c-10.082,0-18.286,8.203-18.286,18.286v31.347c0,10.082,8.203,18.286,18.286,18.286H221.518z M187.559,214.204v-31.347
	c0-1.441,1.171-2.612,2.612-2.612h31.347c1.441,0,2.612,1.171,2.612,2.612v31.347c0,1.441-1.171,2.612-2.612,2.612h-31.347
	C188.731,216.816,187.559,215.645,187.559,214.204z"/>
<path d="M104.49,336.98c-12.963,0-23.51,10.547-23.51,23.51S91.527,384,104.49,384S128,373.453,128,360.49
	S117.453,336.98,104.49,336.98z M104.49,368.327c-4.322,0-7.837-3.515-7.837-7.837s3.515-7.837,7.837-7.837s7.837,3.515,7.837,7.837
	S108.811,368.327,104.49,368.327z"/>
<path d="M410.122,336.98c-12.963,0-23.51,10.547-23.51,23.51S397.159,384,410.122,384s23.51-10.547,23.51-23.51
	S423.085,336.98,410.122,336.98z M410.122,368.327c-4.322,0-7.837-3.515-7.837-7.837s3.515-7.837,7.837-7.837
	s7.837,3.515,7.837,7.837S414.444,368.327,410.122,368.327z"/>
<path d="M105.083,157.257l-26.742,90.906h64.287v-90.906H105.083z M126.955,232.49H99.29l17.52-59.559h10.145V232.49z"/>
<path d="M472.816,101.878H107.102c-21.606,0-39.184,17.577-39.184,39.184v7.837h13.037l-27.739,94.31L0,288.975v89.801h58.363
	c7.298,18.341,25.217,31.347,46.127,31.347s38.829-13.006,46.127-31.347h58.363v-15.673h-14.156l-7.124-13.061h34.342v28.735h20.898
	v28.735h15.673v-28.735h36.571v28.735h15.673v-28.735h20.898v-28.735h29.851c-0.725,3.371-1.116,6.865-1.116,10.449
	c0,0.877,0.024,1.747,0.069,2.612h-15.742v15.673h19.179c7.298,18.341,25.217,31.347,46.127,31.347s38.829-13.006,46.127-31.347H512
	V148.898v-7.837C512,119.455,494.423,101.878,472.816,101.878z M84.935,133.224c3.235-9.122,11.95-15.673,22.168-15.673h365.714
	c10.217,0,18.932,6.552,22.168,15.673H306.29l-34.747,57.911V204.8c0,14.609,11.374,26.603,25.731,27.612v20.975h-36.571v-104.49
	h28.735v-15.673H85.566H84.935z M458.057,216.816c-6.626,0-12.016-5.391-12.016-12.016v-3.657h24.033v3.657
	C470.073,211.426,464.683,216.816,458.057,216.816z M299.233,216.816c-6.626,0-12.016-5.391-12.016-12.016v-3.657h24.033v3.657
	C311.249,211.426,305.858,216.816,299.233,216.816z M413.888,148.898l13.166,36.571h-21.603l-4.389-36.571H413.888z
	 M385.276,148.898l4.389,36.571h-22.04l4.389-36.571H385.276z M351.839,185.469h-21.603l13.166-36.571h12.827L351.839,185.469z
	 M313.578,185.469H293.22l21.943-36.571h11.581L313.578,185.469z M326.922,201.143h24.033v3.657c0,6.626-5.391,12.016-12.016,12.016
	s-12.016-5.391-12.016-12.016V201.143z M366.629,201.143h24.033v3.657c0,6.626-5.391,12.016-12.016,12.016
	c-6.626,0-12.016-5.391-12.016-12.016V201.143z M406.335,201.143h24.033v3.657c0,6.626-5.391,12.016-12.016,12.016
	s-12.016-5.391-12.016-12.016V201.143z M443.712,185.469l-13.166-36.571h11.581l21.943,36.571H443.712z M15.673,363.102v-13.061
	h40.3c-0.725,3.371-1.116,6.865-1.116,10.449c0,0.877,0.024,1.747,0.069,2.612H15.673z M104.49,394.449
	c-18.726,0-33.959-15.234-33.959-33.959s15.234-33.959,33.959-33.959s33.959,15.234,33.959,33.959S123.215,394.449,104.49,394.449z
	 M104.49,310.857c-17.787,0-33.412,9.411-42.176,23.51h-46.64v-7.837h18.286v-15.673H15.673v-14.689l51.273-44.095l30.345-103.175
	h53.696v166.569l10.309,18.9h-14.631C137.901,320.269,122.277,310.857,104.49,310.857z M176.97,363.102h-22.917
	c0.045-0.865,0.069-1.736,0.069-2.612c0-3.584-0.391-7.078-1.116-10.449h16.84L176.97,363.102z M179.15,334.367l-12.489-22.896
	V148.898h78.367v104.49h-22.988v28.735h-37.094v15.673h37.094v36.571H179.15z M316.082,363.102h-78.367v-94.041h78.367V363.102z
	 M410.122,394.449c-18.726,0-33.959-15.234-33.959-33.959s15.234-33.959,33.959-33.959c18.726,0,33.959,15.234,33.959,33.959
	S428.848,394.449,410.122,394.449z M459.686,363.102c0.045-0.865,0.069-1.736,0.069-2.612c0-3.584-0.391-7.078-1.116-10.449h37.687
	v13.061H459.686z M496.327,310.857h-18.286v15.673h18.286v7.837h-44.028c-8.765-14.099-24.389-23.51-42.176-23.51
	c-17.787,0-33.412,9.411-42.176,23.51h-36.191v-28.735H477.91v-15.673h-84.94c0.59-1.665,0.999-3.414,1.2-5.224h7.985v-15.673
	h-7.837v-10.449h-47.02v23.51c0,2.747,0.478,5.384,1.348,7.837h-16.891v-36.571h-18.808V228.84c2.265-1.298,4.331-2.905,6.139-4.766
	c5.035,5.185,12.072,8.416,19.853,8.416s14.818-3.231,19.853-8.416c5.035,5.185,12.072,8.416,19.853,8.416
	c7.781,0,14.818-3.231,19.853-8.416c5.035,5.185,12.072,8.416,19.853,8.416s14.818-3.231,19.853-8.416
	c1.808,1.861,3.873,3.468,6.139,4.766v48.058h15.673v-44.485c14.357-1.009,25.731-13.004,25.731-27.612v-13.664l-25.343-42.238
	h35.923V310.857z M362.971,282.122v-7.837h15.673v7.837c0,4.322-3.515,7.837-7.837,7.837S362.971,286.444,362.971,282.122z"/>
<g>
</g>
<g>
</g>
<g>
</g>
<g>
</g>
<g>
</g>
<g>
</g>
<g>
</g>
<g>
</g>
<g>
</g>
<g>
</g>
<g>
</g>
<g>
</g>
<g>
</g>
<g>
</g>
<g>
</g>
</svg>
